<svg xmlns="http://www.w3.org/2000/svg" width="2000" height="480" viewBox="0 0 2000 480"><path fill="#EF4136" d="M374.36 65h.6c.36.75.69 1.5 1 2.27A89.03 89.03 0 0 0 384.2 82a163.88 163.88 0 0 0 9.83 13.2c.72.88 1.43 1.77 2.13 2.66 2.2 2.76 4.5 5.42 6.91 8 .61.67 1.21 1.35 1.81 2.04a116.5 116.5 0 0 0 3.28 3.58c1.27 1.35 2.53 2.7 3.77 4.08.9 1 1.82 1.96 2.78 2.9.51.53.99 1.07 1.46 1.63a48.8 48.8 0 0 0 2.76 2.9 54.67 54.67 0 0 1 3.2 3.45c.82.9 1.7 1.75 2.56 2.6.77.79 1.48 1.6 2.2 2.44.6.68 1.24 1.31 1.88 1.95.82.8 1.6 1.62 2.35 2.5.86 1 1.78 1.94 2.72 2.87a53.6 53.6 0 0 1 3.17 3.39c1.93 2.23 3.98 4.36 6 6.52 1.21 1.3 2.41 2.6 3.57 3.95.68.77 1.37 1.52 2.07 2.27 1.37 1.48 2.69 3 4 4.54 1.18 1.4 2.4 2.74 3.63 4.1 1.22 1.33 2.4 2.7 3.58 4.07l.92 1.08.47.55c.9 1.06 1.82 2.1 2.75 3.12a89.82 89.82 0 0 1 3.24 3.82c.83 1.02 1.68 2.01 2.54 3 1.2 1.39 2.37 2.8 3.5 4.23.83 1.05 1.68 2.08 2.52 3.11 2.9 3.57 5.8 7.15 8.57 10.83l.46.61c7.87 10.48 15.06 21.68 20.4 33.67l.36.77a172.43 172.43 0 0 1 10.68 32.03l.22.94c5.75 24.43 5.3 52.67-7.99 74.6a80.5 80.5 0 0 1-3.76 5.22c-.92 1.19-.92 1.19-1.59 1.52.14-1.39.37-2.68.73-4.03a38.51 38.51 0 0 0 .17-17.73l-.23-1.12c-1.38-5.86-4.52-11.21-7.61-16.31l-.5-.83-.98-1.58-.44-.72-.4-.64c-.28-.57-.28-.57-.28-1.46l.7-.06a15.7 15.7 0 0 0 10.33-5.3c6.52-8.61 7.32-19.82 5.94-30.23-2.08-13.31-6.91-26.14-15.18-36.86l-.43-.56c-4.79-6.23-10.42-11.63-17.46-15.24l-.53-.27c-5.2-2.68-11.7-4.86-17.54-3.23a8.83 8.83 0 0 0-4.92 4.07 5.75 5.75 0 0 0 .04 4.37c.5.9.94 1.7 1.7 2.39l.38.42-.3.9c-4.48.2-7.8-.47-11.3-3.48-2.93-2.77-4.2-6.16-4.34-10.15-.05-5.58 1.7-9.78 5.21-14.1 4.06-5.09 5.52-9.36 5.07-15.8-.79-6.84-5.16-13.08-9.42-18.27l-.8-.99a91.2 91.2 0 0 0-6.7-7.25l-.45-.45a87.09 87.09 0 0 0-4.8-4.52c-2.45-2.11-4.05-4.85-5.76-7.55-6.6-10.34-16.58-21.22-28.17-25.9-2.68-1.08-2.68-1.08-3.42-2.5-.24-.76-.45-1.5-.65-2.28-.99-3.84-3.53-7.18-6.01-10.19l-.7-.88a43.58 43.58 0 0 0-3.76-4.15c-.96-.98-1.79-2.06-2.64-3.13a32.79 32.79 0 0 0-2.74-2.87 48.07 48.07 0 0 0-5.69 5.6c-.4.47-.82.93-1.24 1.38-4.4 4.69-8.75 10.36-10.24 16.75-.67 1.16-1.76 1.52-2.94 2.08a56.87 56.87 0 0 0-11.8 7.58l-.9.75a92.13 92.13 0 0 0-6.92 6.4 52.01 52.01 0 0 0-4.4 5.08l-.42.54a83.65 83.65 0 0 0-1.5 2 47.87 47.87 0 0 0-2.32 3.5c-3.3 5.4-7.41 9.68-12.24 13.77-.76.69-1.4 1.46-2.07 2.25-.51.58-1.04 1.1-1.6 1.62-1.97 1.94-3.56 4.2-5.19 6.43l-.42.58c-4.13 5.72-7.73 13.03-6.64 20.28.78 4.2 2.77 7.05 5.37 10.33l.42.52 1 1.25c3.23 4.26 4.12 9.64 3.42 14.87a14.3 14.3 0 0 1-6.24 8.93 12.2 12.2 0 0 1-7.12 1.99h-.67l-1.64-.02c0-1.08.27-1.39.88-2.26 1.29-1.85 1.5-3.22 1.21-5.5a7.3 7.3 0 0 0-4.24-4.14c-5.9-1.94-12.49-.03-17.83 2.66a59.52 59.52 0 0 0-10.72 7.45l-.67.55a32.01 32.01 0 0 0-3.8 3.92l-.74.84c-12.19 13.94-19.7 33.59-18.64 52.23.68 7.62 2.77 15.1 8.45 20.54a14.59 14.59 0 0 0 8.1 3.2l.74.1.3.6a35.1 35.1 0 0 1-1.14 2.1l-.37.66c-.63 1.08-1.26 2.16-1.92 3.24-3.02 5-5.48 10.1-7 15.77l-.32 1.04a35.2 35.2 0 0 0 1.07 19.53c.16.7.03 1.1-.16 1.79a65.72 65.72 0 0 1-6.56-9.24l-.32-.55c-5.47-9.46-8.1-20.58-9.22-31.35l-.08-.76a60.83 60.83 0 0 1-.29-6.6v-3.82c0-5.48.28-10.82.96-16.25l.19-1.7c1.57-13.63 5.76-27.46 11.14-40.04l.41-.95a169.3 169.3 0 0 1 12.71-24.1l.56-.87c1.35-2.14 2.76-4.21 4.21-6.28l.36-.51c1.67-2.38 3.4-4.7 5.17-6.99l1.43-1.83a1507.16 1507.16 0 0 1 4.06-5.22c1.59-2.04 3.22-4.03 4.9-6 .71-.83 1.4-1.68 2.1-2.53 1.31-1.62 2.67-3.2 4.03-4.78.85-.99 1.7-1.98 2.53-2.98 2.28-2.7 4.57-5.38 6.95-7.99.87-.96 1.7-1.94 2.51-2.96 1.46-1.81 3.06-3.49 4.65-5.18a82.3 82.3 0 0 0 2.5-2.8c1.2-1.35 2.44-2.66 3.67-4l2.1-2.27 3.46-3.77c1.03-1.1 2.05-2.22 3.06-3.35 1.64-1.83 3.33-3.63 5-5.42l2.09-2.23a2280.04 2280.04 0 0 1 3.23-3.46c4-4.29 4-4.29 5.98-6.24a52.35 52.35 0 0 0 3.06-3.3 36.2 36.2 0 0 1 1.7-1.75c.93-.93 1.8-1.89 2.67-2.89.74-.85 1.51-1.68 2.28-2.51l.46-.5 2.46-2.65c3.35-3.6 3.35-3.6 4.94-5.46l.76-.89a336.8 336.8 0 0 0 5.76-6.95 197.08 197.08 0 0 0 13.46-18.7l.37-.6a79.82 79.82 0 0 0 6.52-12.33l.26-.48Z"/><path fill="#EF4136" d="M374.66 93.92h.6c.35.4.35.4.74.98a124.28 124.28 0 0 0 .88 1.29l.44.65c2.2 3.23 2.2 3.23 2.13 5.43.05.94.05.94.28 1.78.7.62 1.41.98 2.25 1.4.9.49 1.32.9 1.75 1.83.55 2.12.5 4.18-.57 6.1l-.75 1.1.54-.05 2.42-.26.86-.1c.13 0 .13 0 .81-.08l.75-.08.58-.02c.3.3.3.3.32.96-.19 3-.98 5.92-2.4 8.58l.97-.13c.42-.06.85-.1 1.28-.17l.64-.08a26.3 26.3 0 0 1 3.96-.21c.54 4.31.67 8.8-1.19 12.82-1.61.19-3.24.34-4.77-.3-1.26-1.2-1.94-2.88-2.67-4.43-1.51-3.11-3.9-5.77-6.1-8.42l-1.29-1.6-.7-.9-.63-.8-.53-.55h-.9c-.58.6-.58.6-1.23 1.44l-.72.91-.73.93-1.3 1.57a126.6 126.6 0 0 0-2.99 3.8l-.42.55a21.06 21.06 0 0 0-2.02 3.37c-1.9 3.83-1.9 3.83-3.11 4.41a9.38 9.38 0 0 1-4.17.02c-.83-.83-.9-1.72-1.08-2.84l-.12-.67a32.5 32.5 0 0 1-.39-5.05v-.67a9.3 9.3 0 0 1 .7-3.6c2.18.18 4.37.38 6.55.6l-.3-.65c-1.17-2.72-2.35-5.58-2.08-8.59l.3-.3c.61.02 1.22.06 1.84.12l1.02.08c.94.1 1.86.23 2.8.4l-.25-.55-.33-.72-.33-.71c-.62-1.5-.9-3-.39-4.6a6.3 6.3 0 0 1 3.75-3.52l.53-.34c.09-.57.09-.57.02-1.24-.24-2.44 1.34-4.3 2.7-6.17l.5-.7c1.19-1.66 1.19-1.66 1.55-2.02Z"/><path fill="#EF4136" d="M374.36 121.64c.95.08 1.2.32 1.86 1.03a44.73 44.73 0 0 1 1.1 1.5c.41.54.81 1.1 1.21 1.65l.77 1.03c4.1 5.57 7.57 11.64 8.4 18.61.09.58.09.58.37 1.52 1.03.64 2.2.76 3.38.97 6.44 1.37 11.8 4.55 15.54 10.13 2.25 4.09 3.16 9.36 1.88 13.91-.6 1.6-1.4 3.01-2.9 3.91h-.6l-.15-.78c-.98-5.02-2.82-8.95-7-12.04a19.74 19.74 0 0 0-14.92-2.38c-.86.22-1.72.46-2.58.72-.7.17-.7.17-1.89.17.33-.67.68-1.33 1.03-2 1.83-3.5 2.56-6.6 1.38-10.53-.36-.92-.77-1.79-1.21-2.67l-.27-.54a43.63 43.63 0 0 0-3.8-6.36c-.4-.55-.4-.55-.7-1.15l-.9-.3-.22.64a13.4 13.4 0 0 1-1.6 2.58 33.54 33.54 0 0 0-2.78 4.66l-.3.6c-1.33 2.74-2.15 5.85-1.45 8.9a20.3 20.3 0 0 0 2.25 4.81c.52.77.52.77.52 1.36l-1.47-.26-.82-.15c-.53-.1-1.06-.2-1.58-.33a20.6 20.6 0 0 0-14.98 1.82c-4.14 2.73-6.56 6.53-7.68 11.3l-.3 1.63c-.9 0-.9 0-1.62-.53-1.52-1.61-2.1-4.18-2.25-6.32l-.05-.58c-.2-4.61 1.53-9.1 4.52-12.54l.49-.62c3.16-3.88 8.12-6.09 12.92-7.13l.96-.07a5.2 5.2 0 0 0 2.32-.53c.6-1.24.72-2.52.9-3.87 1.7-7.72 6.17-14.29 11.17-20.26.75-.91.75-.91 1.05-1.5Z"/><path fill="#EF4136" d="M349.32 124.92h.6c.33.58.33.58.69 1.4l.4.9.43.98a1043.54 1043.54 0 0 0 1.33 2.95c.57 1.25 1.17 2.48 1.78 3.7l.3.59c.4.8.82 1.55 1.33 2.3.56-.05 1.13-.1 1.7-.2 1.12-.16 2.23-.11 3.36-.1a70.74 70.74 0 0 1-.9 5.91 6.32 6.32 0 0 1-.59 1.85c-.94.42-.94.42-2.08.6-5.4 1.36-9.49 3.47-13.42 7.45l-.6.6h-.89c-2.71-4.28-3.62-10.86-2.68-15.8.6-.3.6-.3 1.63 0a101.08 101.08 0 0 1 1.88.64l1.55.54.04-1.03c.18-4.6.69-9.83 4.14-13.28Zm50.38 0c1.47.5 2 1.95 2.7 3.26 1.73 3.47 1.98 7.24 2.07 11.05.3-.1.58-.22.88-.33l1.15-.43.58-.22c1.46-.54 1.46-.54 2.46-.2.65 2.36.3 4.96-.06 7.35l-.11.78a24.97 24.97 0 0 1-2.51 7.66c-1.29-.14-1.82-.88-2.69-1.79a21.13 21.13 0 0 0-4.99-3.6l-.73-.38a24.27 24.27 0 0 0-6.38-2.15 6.03 6.03 0 0 1-1.9-.72 7.65 7.65 0 0 1-.9-2.69l-.35-1.37-.3-1.33-.16-.7-.39-1.67c.6-.3.6-.3 1.65-.02 1.38.33 2.67.6 4.02.02 1.48-1.62 2.17-3.89 2.93-5.92.52-1.37 1.12-2.7 1.73-4.03l.57-1.3c.43-.97.43-.97.73-1.27Zm-25.34 17h.9c.35.42.35.42.7 1.01l.37.66.4.7.39.66c2 3.49 2.91 6.32 2.6 10.38-.26 1-.65 1.81-1.19 2.69l-.56.93-.63.85-.42.59a9.92 9.92 0 0 1-1.37 1.5c-.76.08-.76.08-1.49-.3-.74-.65-.74-.65-1.49-1.49l-.76-.82a10.1 10.1 0 0 1-2.22-6.93c.38-2.7 1.7-5.08 2.98-7.45l.5-.93c.87-1.53.87-1.53 1.3-2.05Zm-42.63 2.38c1.66.6 2.84 1.55 4.17 2.68l.7.6a13.6 13.6 0 0 1 4.45 8.44c.1 2.08-.49 3.52-1.57 5.27-.3.3-.3.3-1.21.4-2.12-.17-3.4-1.02-4.84-2.56-2.32-2.77-2.35-5.84-2.35-9.31l-.01-.91c0-1.66.1-3.05.66-4.6Zm85.57 0c.89.6.89.6 1.09 1.34.4 4.39.75 9.56-2 13.27a8.87 8.87 0 0 1-4.93 2.89c-1.03-.2-1.03-.2-1.48-.71a8.48 8.48 0 0 1-1.15-6.88c1.33-4.1 4.41-7.25 7.87-9.66l.6-.25Zm-90.64 12.22c2.87.34 5.98 3.19 7.75 5.37 2.6 3.56 4.2 7.45 5.67 11.58.31.87.53 1.48 1.19 2.13v.9l-.58.5c-.85.95-.93 1.85-.91 3.08.32 3.79 2.95 7.28 5.66 9.8.6.63.6.63.6 1.82l-.9.3c-.13.6-.13.6-.16 1.37l-.05.87-.05.93a20.1 20.1 0 0 1-1.11 6.15c-.85 2.25-1.22 4.3-.26 6.57a5.4 5.4 0 0 0 2 2c.97.67 1.1.76 1.37 1.97-.4 3.55-2.56 6.56-5.19 8.83-2.43 1.79-5.12 3.11-7.81 4.44-2.77 1.39-5.62 2.92-7.39 5.54l-.56.8c-.44.74-.77 1.46-1.06 2.27-1.66-.2-2.28-.95-3.32-2.2-1.94-2.75-2.29-6.11-1.9-9.4.8-4 3-6.77 5.82-9.57l.85-.88a67.32 67.32 0 0 1 4.23-3.97c4.32-3.8 7.64-8.68 8.08-14.58.17-3.3-.17-6.28-.94-9.49l-.15-.97c-.4-2.25-1.2-3.2-2.94-4.62-5.83-5-6.98-14.39-7.94-21.54Zm96 0a41.95 41.95 0 0 1-1.1 7.38l-.24 1.03c-1.26 5.17-3.08 11.38-7.79 14.46-1.04 1-1.21 2.08-1.53 3.46l-.19.75c-1.54 6.31-1.14 12.38 1.9 18.17a22.8 22.8 0 0 0 3.28 3.95 15.85 15.85 0 0 0 3.26 3.28c3.59 2.88 6.74 5.9 8.67 10.13l.34.73a14.43 14.43 0 0 1-.06 9.6c-.95 1.92-2.15 3.69-4.16 4.58l-.48-.82c-2.85-4.72-6.55-7.04-11.4-9.44-4.67-2.33-7.91-4.71-9.88-9.72a6.77 6.77 0 0 1-.3-3.28c.64-.6 1.32-1.08 2.03-1.59a3.61 3.61 0 0 0 1.55-2.28c.4-2.96-.49-5.32-1.5-8.05-.24-.86-.34-1.66-.39-2.55l-.03-.76-.04-.8a429.08 429.08 0 0 1-.13-2.76l-1.2-.29c.18-1.01.48-1.44 1.24-2.12 2.6-2.5 5.04-6.08 5.12-9.77 0-1.54-.23-2.15-1.28-3.31.23-.7.23-.7.6-1.5l.52-1.43.31-.86.76-2.13c2.03-5.73 5.35-10.7 10.76-13.74.76-.32.76-.32 1.36-.32Z"/><path fill="#EF4136" d="M371.7 164.4c.89.27 1.77.52 2.66.77.14 1.16.1 1.65-.6 2.61-2.33 1.75-5.27 1.3-8.04 1.19-1.84-.04-3.06-.06-4.48 1.27-.63.76-.63.76-1.19 1.58l-.62.88-.57.82c-1.6 2.2-3.65 3.35-6.1 4.5a3.8 3.8 0 0 0-1.95 1.76c-2.12 6.98 1.78 17.25 5 23.46a35.46 35.46 0 0 0 4.64 6.52c3.46 4.04 8.1 8.6 13.65 9.13 4.91.24 9-3.25 12.48-6.32l.55-.48c7.68-7.24 11.72-18.81 12.05-29.2-.02-1.46-.13-2.77-.97-4-.93-.82-2.01-1.32-3.13-1.84-2.78-1.32-4.16-2.87-5.67-5.53a5.57 5.57 0 0 0-3.12-2.47c-.5-.02-1-.01-1.49 0l-.88.01-1.84.05c-2.1.03-4.43-.02-6.16-1.37-.56-.62-.95-1.13-.99-1.98.32-.59.32-.59 1.3-1l1.3-.33.68-.2 1.42-.37 1.96-.53c4.96-1.36 9.76-1.87 14.5.6a16.26 16.26 0 0 1 7.24 9.16c.43 1.88.45 3.87.54 5.8l.84-.45a4.26 4.26 0 0 1 2.74-.45c.73.73.7.96.71 1.96-.1 3.86-3.06 6.9-5.59 9.57-2.16 2.41-2.47 5-2.57 8.15h.6l.14-.6c.47-1.74.94-2.9 2.24-4.17h.6a363.18 363.18 0 0 1 .07 4.84l.02 1.76v1.08a4.17 4.17 0 0 1-.99 2.45c-1.06.7-1.43.72-2.68.6-.73-.25-1.39-.56-2.09-.9-.22 4.8-.22 4.8 1.2 6.56l.75.65c.9 1.03 1.08 1.95 1.3 3.25a14.88 14.88 0 0 0 6.23 9.59 67.09 67.09 0 0 0 6.15 3.43c3.48 1.77 6.5 3.38 8.82 6.64l-.3.6c-.25-.05-.5-.08-.77-.12a145.5 145.5 0 0 0-8.04-.82l-1.01-.08a99.3 99.3 0 0 0-1.88-.13c-.5-.03-1-.07-1.48-.14-.55-.06-.55-.06-1.43.09-.46.75-.71 1.3-.98 2.12a21.12 21.12 0 0 1-10.64 11.6 33.34 33.34 0 0 1-6.27 2.08l.04.84c.09 4.16-.32 7.63-3.31 10.79-1.45 1.2-3.14 2.38-5.07 2.38.41-1.1.92-2.11 1.47-3.15 1.8-3.6 2.41-7.25 1.25-11.16a31.4 31.4 0 0 0-1.73-3.67 4.23 4.23 0 0 1-.7-2.29l.6-.09c6.55-.98 13.78-2.2 18.19-7.66 1.49-2.03 1.49-2.03 1.49-3.28-.78-.34-.78-.34-1.8-.3-.52.68-.9 1.41-1.31 2.17-1.41 2.45-3.66 3.76-6.23 4.78-.8.2-.8.2-2 .2v-.59c.35-.31.71-.6 1.07-.9 2.4-2.05 3.69-4.45 4.6-7.45l-.7-.5c-4.31-3.13-6.35-6.12-7.2-11.38l-.15-.94-.43.33c-9.62 7.25-9.62 7.25-14.47 6.83-4.47-.88-8.44-4.7-11.93-7.45l.08 1.11a13.3 13.3 0 0 1-3.78 8.88c-.99.9-1.92 1.74-3.1 2.39l-.65.43c-.19 2.54 1.42 4.84 3.02 6.7.84.86 1.65 1.58 2.64 2.25v.6c-3.27-.64-6.28-2.1-8.34-4.78-.28-.49-.53-.99-.78-1.49-.35-.68-.35-.68-.71-1.19-1-.17-1-.17-1.8 0 .44 2.75 2.53 4.9 4.7 6.5 4.72 3.02 10.09 4.14 15.58 4.83 0 1.17-.43 1.78-.99 2.81-1.89 3.66-2.51 7.07-1.46 11.08.6 1.68 1.43 3.23 2.26 4.8.49.99.49.99.49 1.58-2.16-.11-3.73-1.43-5.3-2.81-3.06-3.5-3.18-6.7-3.05-11.2l-.96-.24c-5.58-1.48-10.72-4.34-13.95-9.3a47.94 47.94 0 0 1-2.98-6.26c-4.99.2-9.94.63-14.9 1.2.86-2.86 3.22-4.24 5.66-5.67 1.18-.62 2.38-1.2 3.58-1.77a32.39 32.39 0 0 0 6.85-4.2l.77-.57c2.6-2.2 3.86-5.32 4.42-8.6.42-2.34.42-2.34 1.37-3.05l.9-.6c1.12-1.97 1.14-3.77.6-5.96l-.77.32a5 5 0 0 1-3.11-.02c-1.03-.8-1.45-1.23-1.66-2.54l.03-1.18v-.64c0-.66.03-1.33.05-2l.02-1.35c.01-1.1.04-2.21.07-3.32l.9-.3.87 1.81.5 1.02c.42 1.06.6 2 .7 3.14h.6c.1-2.7-.17-5.51-1.78-7.76a76.95 76.95 0 0 0-2.02-2.02c-2.44-2.37-4.28-5.12-4.65-8.56.1-.74.1-.74.7-1.64 1.46-.2 2.31.22 3.58.9l.08-1.05c.42-4.9 1.81-9.13 5.68-12.4 6.56-4.69 13.32-3.27 20.5-1.04Z"/><path fill="#EF4136" d="M353.2 184.85c2.2.35 4.2 1 6.3 1.73 1.4.48 2.7.79 4.16.95a6.5 6.5 0 0 1 4.14 2.09l.48.41c.42.39.42.39 1.01 1.08v.9c-8.56 2.12-8.56 2.12-12.22 0-1.77-1.52-3.27-3.39-3.88-5.67-.01-.5-.02-1 0-1.5Zm43.22 0c-.56 2.97-1.6 5.1-3.87 7.15-3.17 2.1-7.25 1.33-10.76.62l-1.47-.32c.2-1.67.99-2.3 2.24-3.34 1.69-1.21 3.52-1.45 5.53-1.82 1.96-.37 3.73-.95 5.57-1.7a6.42 6.42 0 0 1 2.76-.6Zm-78.83 50.03.99-.02a6.2 6.2 0 0 1 2.42.67l-.75.87-.5.59-1.1 1.22a27.1 27.1 0 0 0-5.6 9.38c-.6 1.6-.6 1.6-1.6 2.25-.68-.06-.68-.06-1.5-.25l-.9-.2-.99-.22a72.56 72.56 0 0 0-10.32-1.42c.86-3.88 5-7.25 8.22-9.33a22.65 22.65 0 0 1 11.63-3.54Zm126.11 3.71c1.07.76 2.02 1.63 2.98 2.53.72.67.72.67 1.61 1.37.98.8 1.67 1.74 2.37 2.78l.37.53c.3.44.58.9.85 1.36l-.3.6c-.68.13-.68.13-1.57.21l-1 .1-1.05.11a61 61 0 0 0-7.7 1.2 8.41 8.41 0 0 1-3 .16 7.7 7.7 0 0 1-.9-2.03l-.45-1.25-.22-.62a22.91 22.91 0 0 0-7.37-9.81c.3-.6.3-.6.8-.78 5.1-.86 10.28.87 14.57 3.54Zm-69.34-.97a2.2 2.2 0 0 1 1.68.78l.47.63.53.71.54.76.57.78c2.63 3.69 4.74 7.46 4.26 12.14-.79 3.88-2.88 6.7-5.27 9.76l-.5.66-.5.6-.43.55c-.45.35-.45.35-1.06.3-.94-.4-1.42-1.2-2-2l-.4-.53-.79-1.08c-.34-.47-.7-.92-1.06-1.38-2.34-3.04-3.49-6.32-3.2-10.16.72-4.3 3.59-8.04 6.27-11.33l.46-.73.43-.46Zm-32.49 20.12c5.5 3.64 11.26 5.85 17.7 7.33l.78.27.3.9c-10.77.87-19.97-2.47-29.34-7.63l-3.67-2a611.26 611.26 0 0 1-2.8-1.53l-.8-.43c-.66-.34-.66-.34-1.55-.64l.3-.9c6.58-2.78 13.73 1.08 19.08 4.63Zm84.66-4.62.3.9-.68.33a621.85 621.85 0 0 0-3.74 1.85 122.97 122.97 0 0 0-6.7 3.55c-8.1 4.6-16.8 7.5-26.14 6.49l-.6-.3v-.6l.7-.19a72.32 72.32 0 0 0 21.85-9.87c4.23-2.72 10.17-3.78 15.01-2.16Zm-133.26 7.15c5.45.28 11.8 2.6 16.1 5.97.57.9.57.9 1.04 1.93a405.6 405.6 0 0 0 .79 1.7c.38.8.8 1.58 1.23 2.36 2.14 4.34 2.23 8.8.82 13.38a8.1 8.1 0 0 1-.9 1.8h-.6l-.12-.85c-.76-4.51-2.59-8.1-6.36-10.87-1.3-.9-2.62-1.75-3.95-2.6-3.7-2.39-6.51-5.03-8.05-9.24-.23-1.1-.37-2.16-.3-3.28l.3-.3Zm163.37.3c-.44 4.3-2.17 7.52-5.36 10.44-1.34 1.06-2.79 1.97-4.23 2.88-4.02 2.57-6.96 5.22-8.7 9.82a37.34 37.34 0 0 0-.49 3.99h-.6c-.37-.73-.37-.73-.76-1.7l-.4-.95c-1.46-4.1-.95-8.97.87-12.85a74.99 74.99 0 0 1 2.39-4.55c.24-.44.47-.89.68-1.34.72-.96 1.64-1.37 2.7-1.86l.65-.31c9.96-4.71 9.96-4.71 13.25-3.57Z"/><path fill="#EF4136" d="M461.41 261.76c1.89 1.72 2.47 4.4 2.69 6.86a11.23 11.23 0 0 1-3.46 8.57c-2.85 2.68-6.3 3.54-10.03 4.38-3.07.74-6.18 2.19-7.89 4.94-.88 1.69-1.22 3.5-1.58 5.36h-.6c-1.47-2.57-1.48-4.79-.72-7.58 1.54-4.62 5.11-7.36 9.2-9.7a37.63 37.63 0 0 0 6.73-4.78l.64-.55c2.25-2.07 3.7-4.77 5.02-7.5Zm-173.81.3h.6c.33.57.63 1.16.92 1.75a18.06 18.06 0 0 0 3.22 4.45c.63.66.63.66 1.12 1.36 1.05 1.18 2.33 1.95 3.65 2.8l.85.56c1.42.93 2.85 1.85 4.29 2.76 3.39 2.15 6.09 4.5 7.52 8.39.26 1.17.31 2.3.33 3.5v.65a6.14 6.14 0 0 1-1.03 3.6l-.9.3c0-.13 0-.13-.06-.75-.34-2.88-1.13-5.08-3.27-7.1-2.28-1.75-4.9-2.44-7.64-3.15-3.48-.9-7.42-2-9.6-5.1-1.83-3.15-2.66-6.06-1.84-9.7.46-1.55.91-2.98 1.85-4.32Z"/><path fill="#EF4136" d="M285.82 277.56a3.7 3.7 0 0 1 2.2 1.23c3.03 2.7 6.62 3.64 10.5 4.54 3 .73 5.4 1.83 7.28 4.36.35.74.34 1.3.29 2.1l-.68.14c-5.24 1.2-8.67 4.03-11.57 8.46-2.56 4.21-4.03 8.89-2.93 13.85a13.14 13.14 0 0 0 5.94 7.36v.6c-.79.39-.79.39-1.83.8l-1.02.4c-1.44.4-2.32.26-3.62-.45-3.8-2.72-5.95-6.36-6.83-10.93-.23-1.63-.26-3.27-.3-4.92l-.04-1.08-.08-2.6a35.92 35.92 0 0 0-3.3 3.05 32.44 32.44 0 0 1-8.53 5.94l-.7.37c-.22.1-.44.2-.66.32l-.59.29c-.53.16-.53.16-1.42-.14l.59-.48c9.46-8.12 14.08-21.56 17.3-33.2Zm177.68 0 .28.9c1.87 6.02 3.8 11.9 6.58 17.59l.32.67a50.6 50.6 0 0 0 10.41 14.23c-1.1.37-1.5.1-2.5-.4l-.63-.32-.65-.33a31.82 31.82 0 0 1-5.16-3.42l-.85-.66c-1.56-1.24-3-2.54-4.38-3.98-.44-.43-.44-.43-.74-.43l.02 1.01c.1 6.35-.47 12.23-5.08 17.01a9.6 9.6 0 0 1-3.28 2.26 14.1 14.1 0 0 1-5.07-1.2l-.3-.89.58-.34c2.82-1.8 4.75-4.5 5.55-7.79.8-4.92-.57-9.74-3.39-13.82-2.73-3.53-5.55-6.32-9.9-7.56l-.63-.19-1.45-.41c1-2.66 2.22-4 4.8-5.22 1.7-.7 3.51-1.14 5.3-1.58 2.6-.66 5.02-1.42 7.17-3.06l.81-.6c.7-.57.7-.57 1.2-1.1.4-.37.4-.37 1-.37Z"/><path fill="#EF4136" d="M467.67 305.59h.6a27.21 27.21 0 0 1 3.28 10.43l.08.68c.22 4.04-1.47 8-4.03 11a15.26 15.26 0 0 1-6.19 4.12c-.57-.57-.46-1.63-.54-2.4a11.07 11.07 0 0 0-1.54-4.75l-.6-1.5.56-.35c4.06-2.73 6.55-5.9 7.79-10.67.17-1.15.27-2.3.35-3.45l.08-.91.16-2.2Zm-186.62.59h.6l.05.51c.73 6.16 1.85 10.9 6.83 14.95.76.57 1.53 1.07 2.36 1.54-.3.61-.62 1.22-.96 1.81a13.46 13.46 0 0 0-1.59 5.7l-.14.83-.6.3c-4.23-1.95-7.22-4.85-8.9-9.18-1.65-4.98-.71-10.31 1.49-14.95.45-.88.45-.88.86-1.5Z"/><path fill="#EF4136" d="M278.36 307.38c.4 1.16.12 1.53-.33 2.66a54.95 54.95 0 0 0-2 6.91c-.2.89-.43 1.76-.7 2.63-1.49 4.83-1.4 10.04.92 14.6 2.06 3.75 5.05 6.35 8.38 8.97-1 .33-1.66.26-2.68.01l-.85-.2-.89-.22c-7.37-1.78-14.88-1.83-21.52 2.2a16.58 16.58 0 0 0-5.67 5.96c-1-.3-1.23-.66-1.8-1.56a65.51 65.51 0 0 1-.92-1.86 21.07 21.07 0 0 1-1.75-5.82l-.11-.66c-.82-5.35.3-11.35 3.37-15.83 4.8-6.2 10.75-9.7 17.85-12.74a40.46 40.46 0 0 0 8.7-5.05Zm192.59 0 .43.3 2.26 1.49.88.59a49.23 49.23 0 0 0 7.78 3.88c3 1.24 5.73 2.5 8.33 4.47l.87.65a25.3 25.3 0 0 1 7.59 9.07 23.6 23.6 0 0 1 1.18 16.99 32.24 32.24 0 0 1-3.08 6.08h-.9c-.31-.42-.31-.42-.63-1.02-2.54-4.28-7-6.49-11.66-7.74a33.13 33.13 0 0 0-17.82 1.31c-.9.06-.9.06-1.49 0a56.9 56.9 0 0 1 2.98-2.83c3.47-3.12 6.79-7.05 7.23-11.92.03-.85.04-1.7.04-2.54v-.92c-.04-2.56-.52-4.7-1.3-7.13a51.2 51.2 0 0 0-1.88-6.96 18.79 18.79 0 0 1-.8-3.77ZM302.7 323.63a37.05 37.05 0 0 1 5.48 4.9 47.15 47.15 0 0 0 3.28 3l.95.82c1.92 1.66 3.86 3.28 5.84 4.86a6.88 6.88 0 0 1 1.55 1.77c-.3.9-.3.9-.89 1.2-3.76.41-6.93-1.82-9.92-3.8-1.33-.88-2.6-1.6-4.1-2.17 3.12 7.02 8.76 9.44 15.51 12.22 4.7 1.95 4.7 1.95 6.26 3.28v.6a30.1 30.1 0 0 1-7.21-.62l-.98-.2a33.3 33.3 0 0 1-10.6-4.25l-.29.3c6.15 4.2 12.36 5.67 19.67 6.43l.61.06 1.65.18c1.48.27 3.08.71 4 1.97v.6a6.9 6.9 0 0 1-2.1.39l-.73.04-.78.03-.8.04c-5.96.26-11.95.31-17.64-1.7l-1.1-.37c-8.1-2.9-15.1-9.77-19.18-17.21a11.8 11.8 0 0 1-.6-8.65 8.55 8.55 0 0 1 4.76-4.88c2.6-.53 5.04-.18 7.36 1.16Zm152.75-.45a7.8 7.8 0 0 1 3.58 4.77c.75 4.04-.23 7.3-2.39 10.73l-.46.75a37.03 37.03 0 0 1-21.9 15.26 37.81 37.81 0 0 1-3.09.49c-4.77.55-10.4.66-15.1-.4.43-1.02.88-1.5 1.8-2.09 1.92-.6 3.98-.7 5.98-.86 6.1-.52 14.14-2.16 18.46-6.89l-.94.48a46.75 46.75 0 0 1-18.73 5.18c.1-.71.19-1.1.74-1.58a32.73 32.73 0 0 1 5.01-2.37c9.3-3.72 9.3-3.72 12.14-6.48l.57-.55c1.52-1.58 2.4-3.44 3.3-5.41a42.2 42.2 0 0 0-5.7 3.16c-2.51 1.66-4.9 3.02-8.01 2.5l-.6-.6c0-1.1.27-1.46 1.06-2.25l1-.8.52-.43 1.6-1.28a87.65 87.65 0 0 0 8.38-7.53c3.47-3.49 7.95-6.17 12.78-3.8Z"/><path fill="#77869B" d="M314.74 159.2c-.29 1.58-.76 3.1-1.21 4.64a21.87 21.87 0 0 0 1.77 15.8c1.01 1.72 2.16 3.35 3.28 5 3.74 5.56 5.67 11.5 4.45 18.24a25.64 25.64 0 0 1-11.12 15.82c-1.4.81-2.86 1.53-4.33 2.22a4.18 4.18 0 0 1 1.21-2.31 23.32 23.32 0 0 0 5-16.2c-.63-5.03-2.85-9.02-5.93-12.96-3.53-4.54-4.93-8.7-4.45-14.44.84-6.13 5.58-11.65 10.2-15.46.53-.34.53-.34 1.13-.34Zm120.14 0c1.52.45 2.4 1.37 3.49 2.47l.55.56c4.3 4.47 7.43 9.7 7.38 16.04-.14 4.98-2.56 8.84-5.58 12.64a21.62 21.62 0 0 0-4.72 16.22 24.2 24.2 0 0 0 6.04 13.2c-.9.3-.9.3-1.69 0-6.25-3.32-10.96-8.51-13.24-15.24a21.72 21.72 0 0 1-.87-4.74l-.06-.76c-.08-1.9.16-3.65.56-5.5l.13-.64c.78-3.35 2.3-6.16 4.23-8.98 4.2-6.3 6.65-12.2 5.18-19.86a86.5 86.5 0 0 0-1.4-5.4Zm-154.74 66.87c2.06 1.74 3.64 3.71 3.95 6.46.24 3.21-.1 5.73-1.9 8.46a8.88 8.88 0 0 1-6.7 2.65 5.7 5.7 0 0 1-4.11-1.98c-1.12-1.37-1.13-2.61-1.07-4.34l.3-1.2c-5.25 2.4-8.34 6.97-10.43 12.23a47.86 47.86 0 0 0-1.5 5.36l-.21 1a29.4 29.4 0 0 0 1.7 16.9c.13.27.25.55.37.84 1.77 3.87 4.57 6.82 7.58 9.76 3.44 3.39 5.75 7.11 5.85 12.03-.11 5.43-2.55 9.65-6.34 13.43-2.52 2.24-5.27 4.22-8 6.2-3.66 2.67-7.18 5.43-9.72 9.23-.41.6-.83 1.08-1.36 1.57.55-3.86 2.91-7.53 5.37-10.44l.8-.97a95.82 95.82 0 0 1 3.9-4.41c2.32-2.57 4.15-5.72 4.37-9.24-.21-1.93-.78-3.53-2.29-4.8-1.34-.92-2.86-1.43-4.38-1.97-5.22-1.88-8.79-5.4-11.27-10.35-.49-1.14-.9-2.26-1.27-3.44l-.19-.6c-1.87-6.32-1.5-13.58-.1-19.97l.17-.82c2.6-11.48 8.36-23.6 18.51-30.22 5.35-3.34 12.38-5.5 17.97-1.37Zm210.49 3.79.66.52a28.75 28.75 0 0 1 4.4 4.85l.4.51c8.11 10.45 12.28 24.74 10.71 37.91-.97 6.16-3.17 12.24-8.36 16.1a39.67 39.67 0 0 1-7.06 3.37c-1.78.71-3.05 1.34-4.04 3.04-.88 2.42-.53 5.35.45 7.7a25.86 25.86 0 0 0 5.01 6.59c1.08 1.06 1.98 2.28 2.9 3.49l.53.7c2.14 2.91 4.03 6.17 4.83 9.73h-.6c-.35-.48-.35-.48-.75-1.16a31.39 31.39 0 0 0-3.71-4.5l-.57-.62c-2.2-2.3-4.8-4.12-7.37-5.96-5.68-4.12-11-8.7-12.22-15.99-.45-3.84.29-7.72 2.53-10.92a30.75 30.75 0 0 1 4.69-5c4.85-3.89 7.79-10.96 8.46-16.97.2-3.86.14-7.58-.89-11.32l-.15-.58c-1.5-5.72-4.37-11.3-9.5-14.51a6.44 6.44 0 0 0-1.98-.72l.3.9a7 7 0 0 1-.9 4.47 6.97 6.97 0 0 1-4.95 2.24 9.42 9.42 0 0 1-5.7-2.36 10.73 10.73 0 0 1-2.54-7.36c.3-3.27 1.5-5.53 3.95-7.64 6.83-5.43 15.6-1.34 21.47 3.5Zm-115 40.75.7.19c1.24.36 2.47.75 3.7 1.15 3.76 1.23 7.55 2.39 11.34 3.55 7.36 2.24 14.7 4.53 22.05 6.83v.9l-.82.3-.55.19-1.24.45-3.56 1.28-7.3 2.64c-4.3 1.54-8.57 3.1-12.84 4.69l-3.87 1.44c-1.21.44-2.42.9-3.62 1.35l-1.59.59-.68.27c-2.94 1.06-5.48-.17-8.28-1.2l-1.22-.44-2.6-.94-3.94-1.43-5.36-1.94a2446.16 2446.16 0 0 0-12.31-4.44l-2.25-.81-2.73-1-.78-.27c-.69-.26-.69-.26-1.68-.73v-.9l20.65-6.44 8.52-2.64 1.83-.57 2.57-.8.78-.24.73-.23.68-.2c.54-.18 1.07-.37 1.6-.57a3.17 3.17 0 0 1 2.07-.03Zm-45.99 14.41c1.48.15 2.8.63 4.18 1.15a228.12 228.12 0 0 1 2.36.89l4.66 1.72c3.3 1.2 6.58 2.41 9.87 3.63l6.77 2.5.9.34 3.66 1.35a2405.49 2405.49 0 0 1 7.22 2.66l1.3.48.6.22c.83.3 1.38.52 2 1.16a33.34 33.34 0 0 1 .09 3.37v55.21a403.87 403.87 0 0 0 0 4.48v.77c0 .58-.04 1.17-.08 1.75l-.6.3c-.7-.24-.7-.24-1.59-.63l-1-.43-1.1-.49-1.13-.49-2.36-1.03-5.25-2.26-1.03-.44c-2.68-1.15-5.37-2.3-8.06-3.43-.2-.1-.4-.18-.62-.27l-6.29-2.66a692.32 692.32 0 0 1-17.73-7.72l-2.36-1.06-1.13-.5c-1.96-.87-3.9-1.76-5.8-2.74l.3-.9c.71-.18.71-.18 1.6-.29 1.54-.2 1.54-.2 2.22-.7.5-.69.62-1.32.6-2.17-.8-2.35-3.82-4.26-5.72-5.73-1.45-1.17-2.8-2.47-4.16-3.74l-2.05-1.9-1.46-1.35c-.53-.49-1.06-.97-1.6-1.43l-.6-.53-.5-.43c-.26-.5-.26-.5-.03-1.33.35-.92.75-1.64 1.3-2.46.17-.28.36-.55.55-.84l.59-.88 1.22-1.86.61-.92 2.29-3.5.79-1.23.38-.6 1.18-1.8a915.9 915.9 0 0 0 8.25-12.96c5.82-9.34 5.82-9.34 6.76-10.28Zm-2.98 16.7a3.7 3.7 0 0 0-.56 2.4c.31 1.04.63 1.36 1.46 2.06.89.46.89.46 1.94.9l.58.24c.63.27 1.26.52 1.9.78l1.33.56 2.74 1.14 3.7 1.55c4.1 1.73 8.22 3.44 12.34 5.14l.65.27 2.99 1.22a158.89 158.89 0 0 1 3.42 1.43c1 .32 1.7.23 2.69-.1a3.22 3.22 0 0 0 1.33-2.14c.1-1.31.1-1.31-.14-2.04-1.53-1.67-3.6-2.33-5.66-3.15l-1.17-.47-3.02-1.22-2.68-1.07-3.16-1.26c-4.97-1.98-9.92-4.02-14.86-6.05l-1.36-.56-1.44-.6c-1.41-.51-2-.01-3.02.96Zm-4.17 10.43c-.7.96-.72 1.82-.6 2.98.32.88.67 1.36 1.5 1.83.81.35 1.64.68 2.47 1l1.95.78 1.05.42c1.66.68 3.3 1.4 4.95 2.11l2.84 1.24.57.25c2.22.96 4.44 1.9 6.67 2.84 2.03.85 4.07 1.72 6.1 2.59.26.1.5.22.77.33 1.13.48 2.26.97 3.38 1.48l.57.26 1.46.67c1.05.35 1.89.39 2.99.3.7-.56 1.09-1 1.49-1.8.2-1.7.2-1.7 0-2.38-1.58-1.74-3.82-2.42-5.95-3.28l-1.24-.5-2.57-1.06c-1.76-.72-3.5-1.45-5.26-2.19l-1.7-.7a1113.8 1113.8 0 0 1-13.99-5.98l-.7-.3-2.09-.88-.65-.27c-1.7-.71-2.48-.84-4.01.26Zm-4 10.28c-.64 1-.9 1.95-.77 3.13 1.2 2.62 4.82 3.44 7.32 4.5a491.6 491.6 0 0 1 9.1 4 978.44 978.44 0 0 0 15.7 6.89 85.64 85.64 0 0 1 2.64 1.18l1.55.72c1.07.34 1.67.3 2.74 0 .74-.5 1.1-.88 1.36-1.75.19-1.03.25-1.59-.23-2.56a4.03 4.03 0 0 0-2.04-1.57l-.93-.42-1-.44-1.05-.47a406.93 406.93 0 0 0-9.1-3.9c-1.87-.79-3.72-1.6-5.57-2.42a1194.26 1194.26 0 0 0-11.69-5.09l-2.17-.97-.56-.25-1.53-.7c-1.33-.45-2.53-.65-3.76.12Zm101.78-37.11c.5.54.5.54.94 1.26l.5.8.52.88.55.9 1.13 1.83a263.1 263.1 0 0 0 2.82 4.51c1.09 1.72 2.2 3.43 3.3 5.14 2.02 3.1 4 6.24 5.99 9.37a1183.75 1183.75 0 0 0 5.88 9.18l.71 1.11.87 1.3c.34.68.34.68.33 1.28-.96 2.02-2.98 3.65-4.67 5.08-.88.75-1.72 1.54-2.56 2.34a70.3 70.3 0 0 1-3.7 3.22l-.79.64c-.54.45-1.1.89-1.64 1.32-2.28 1.9-2.28 1.9-2.58 3.27.15 1.12.15 1.12.82 2 1.3.92 2.86.88 4.4.91-.3.85-.54 1.16-1.32 1.64l-.92.41a195.3 195.3 0 0 1-3.16 1.44c-3.15 1.43-6.34 2.8-9.51 4.18l-4.21 1.83a1759.13 1759.13 0 0 1-24.74 10.6l-1.87.8a421.3 421.3 0 0 0-5.43 2.32l-.88.38-1.58.7-.7.3-.57.26c-.56.18-.56.18-1.75.18a91.11 91.11 0 0 1-.34-8.74V350l.03-10.24.02-7.27a3014.06 3014.06 0 0 1 .05-17.65c0-1.91 0-3.82.02-5.74v-2.13l.02-2.92v-.87c0-.72.03-1.37.2-2.07.7-.6.7-.6 1.49-.9l1-.42 1.16-.43.64-.25 2.1-.78 1.5-.56c3.53-1.33 7.07-2.64 10.61-3.94a1404.6 1404.6 0 0 0 10.29-3.81l5.13-1.93a642.46 642.46 0 0 1 4.16-1.57l1.74-.65 1.74-.66c.9-.24 1.4-.24 2.26.1Zm-5.14 17.16-1.26.52a1006.36 1006.36 0 0 0-6.84 2.86l-1.4.58-.69.3-2.07.86a427.17 427.17 0 0 1-10.5 4.25l-2.36.95-.72.28c-1.35.55-2.23 1.04-3 2.35a4.07 4.07 0 0 0 .48 3.26c.88.76 1.35.83 2.5.91.92-.24.92-.24 1.97-.65l.6-.24c2.84-1.13 5.63-2.36 8.43-3.56 1.81-.79 3.63-1.56 5.45-2.31l.83-.35a893.9 893.9 0 0 1 5.28-2.17l3.35-1.37 1.68-.68 2.36-.97.73-.28c1.22-.51 2.17-.96 3-2.03a3.23 3.23 0 0 0-.09-2.76c-.5-.82-.5-.82-1.1-1.41-2.41-.35-4.46.73-6.63 1.66Zm7.02 9.61-1.28.58-.72.32c-1.46.66-2.95 1.27-4.42 1.9a1223.8 1223.8 0 0 0-8.18 3.48 1117 1117 0 0 1-10.28 4.35l-2.16.9c-.74.31-1.48.62-2.23.91l-1.13.46-1.01.4a4.98 4.98 0 0 0-2.07 1.96c-.19 1.5 0 2.37.9 3.58.3.3.3.3 1.26.42 1.95-.03 3.65-.98 5.39-1.78l1.18-.53 1.87-.83a406.5 406.5 0 0 1 9.01-3.9l1.99-.85 6.3-2.7 2.56-1.1 1.2-.51c.97-.42 1.94-.83 2.92-1.22l.57-.23 1.56-.62a5.16 5.16 0 0 0 2.05-1.95 4.58 4.58 0 0 0-.3-2.39c-.67-.9-.67-.9-1.5-1.49-1.34-.18-2.27.28-3.48.84Zm2.03 11.48-1.12.49-2.84 1.26-2.43 1.07-3.64 1.6a1184.53 1184.53 0 0 1-6.87 3l-5.85 2.53-2.44 1.05-1.16.5c-5.68 2.44-5.68 2.44-6.5 3.57a3.78 3.78 0 0 0 .02 2.72c.58.96.91 1.4 1.98 1.74 1.31.07 2.25-.35 3.4-.88l.74-.32a273.23 273.23 0 0 0 4.56-2.04l3.86-1.73c2.18-.99 4.37-1.95 6.56-2.91l.91-.41a3084.93 3084.93 0 0 1 9.25-4.06l1.95-.86 2.98-1.31.92-.4.86-.38.75-.33a3.9 3.9 0 0 0 1.53-1.9 5.57 5.57 0 0 0-.78-2.97c-.77-.67-1.12-.77-2.12-.73-1.59.28-3.05 1.04-4.52 1.7Zm-116.62 34.95c15.32 10.65 15.32 10.65 22.38 9.97a6.14 6.14 0 0 0 3.58-2.38 3.39 3.39 0 0 0-.04-2.74c-.97-1.45-2.21-1.84-3.84-2.33.41-.97.8-1.43 1.7-1.98l.58-.36c2.73-1.33 6.24-1.37 9.16-.62 2.43.88 4.49 2.38 5.81 4.61a8.34 8.34 0 0 1 .37 6.53 10.77 10.77 0 0 1-2.12 3.15l-.44.48c-3.8 3.66-8.97 3.88-13.92 3.8a31.5 31.5 0 0 1-8.3-1.6l-.98-.3a35.82 35.82 0 0 1-3.67-1.54 165.95 165.95 0 0 1-14.3-7.55c-6.87-3.99-14.2-7.04-22.24-7.08l-.97-.02c-4.02-.02-8.06 1.11-11.05 3.93-2.1 2.28-2.65 4.6-2.64 7.63.2 1.92.93 3.75 2.1 5.3.4.53.4.53.4 1.12-5.56-.5-10.34-2.5-14.02-6.85-2.08-2.8-3.44-6.33-2.98-9.84.8-4.37 3.01-7.38 6.6-9.89 15.6-10.13 35.4-.83 48.83 8.56Zm184.49-7.58c2.82 2.42 4.86 5.32 5.25 9.09.14 4.36-1.23 7.5-4.08 10.73a261.6 261.6 0 0 1-1.42 1.27c-3.27 2.8-7 4.4-11.3 4.21.32-.9.71-1.72 1.2-2.55 1.2-2.1 1.19-4.62.88-6.99a9.91 9.91 0 0 0-5.1-6.16c-3.05-1.5-5.71-2-9.1-1.98h-.95c-2.5.04-4.79.32-7.2.99l-.92.23c-6.83 1.9-13.1 5.57-19.2 9.09-8.86 5.1-18.38 9.42-28.87 7.34-3.21-.92-6.67-2.83-8.4-5.78-.88-2.07-1.36-4.18-.7-6.39a10.3 10.3 0 0 1 5.52-5.63c2.78-1 6.58-1.19 9.36-.07 1 .55 1.9 1.24 2.66 2.1v.6c-.56.29-.56.29-1.29.58-.95.37-1.65.69-2.3 1.5-.28 1.27-.44 2 .03 3.21a6.07 6.07 0 0 0 4.07 2.26c5.4.2 9.9-2.3 14.31-5.15l.67-.44c1.58-1.02 3.15-2.07 4.7-3.13 14.36-9.71 35.78-21.6 52.18-8.93Z"/><path fill="#77869B" d="M306.27 371.5c8.72 4.92 17.32 9.04 27.25 10.7l.6.11c11.74 2.01 23.13-.52 33.96-4.95.62-.22.62-.22 1.21-.22-2 6.65-8.39 12.86-14.34 16.1-9 4.56-20.1 4.65-29.78 2.38l-.8-.18c-10.17-2.43-18.62-7.8-26.24-14.78-2.36-2.16-4.6-4-7.54-5.31l.45.84c.68 1.62.8 3.48.23 5.16a6.5 6.5 0 0 1-3.27 3.02c-2.8.63-5.05.15-7.55-1.27-2.4-1.76-4.37-3.85-4.99-6.84-.42-3.16.1-5.71 2.04-8.28 7.76-9.32 20.76-1 28.77 3.52Zm163.25-5.78c2.43 2 4.14 4.14 4.54 7.34.12 2.97-.58 5.52-2.4 7.9a11.44 11.44 0 0 1-7.86 3.72 6.71 6.71 0 0 1-4.58-1.82c-.96-1.07-1.4-2-1.37-3.46a9.5 9.5 0 0 1 .88-3.75c-2.98 1.06-5.26 3.14-7.51 5.29a58.85 58.85 0 0 1-28.27 14.98l-.69.15c-6.83 1.38-14.95 1.58-21.66-.45l-.64-.19c-8.42-2.6-15-8.9-19.11-16.6l-.83-1.7c1 0 1.57.23 2.5.6l.96.4 1.04.4a60.77 60.77 0 0 0 46.63-.73 119.4 119.4 0 0 0 11.18-5.73c19.86-11.46 19.86-11.46 27.19-6.35Zm-94.86 10.82c.94.88 1.41 1.89 1.96 3.04a53.9 53.9 0 0 0 5.57 9.1c2.66 3.56 3.5 7.04 3.2 11.41-.83 4.45-3.29 7.32-6.46 10.35a34.74 34.74 0 0 0-3.97 4.56l-.62-.62-1.86-1.85c-7.36-7.3-7.36-7.3-8.26-11.84l-.16-.81c-.75-5.43 2.03-9.66 5.15-13.8 2.19-2.95 3.82-6.26 5.45-9.54Zm-14.01 18.19h.9l-.05 1.17c-.08 3.16.09 5.69 1.23 8.67l.38 1.28.22.8c-1.8-.36-3.5-.83-5.21-1.45l-.7-.24-2.2-.78-1.45-.52-4.15-1.48-1.29-.46-2.89-1.03.3-.9c.77-.18 1.5-.3 2.27-.4 3.72-.59 9.84-1.87 12.64-4.66Zm27.72 0c.51.19.51.19 1.18.5a137.3 137.3 0 0 1 1.54.73 46.37 46.37 0 0 0 12.79 3.84v.89a3490.36 3490.36 0 0 1-6.84 2.45c-9.8 3.51-9.8 3.51-10.75 3.51l.16-.47.47-1.42.52-1.5c.77-2.36.7-4.63.64-7.08v-1.15l.3-.3Z"/><path fill="#008FBF" d="M330.14 260.45c13.06 7.8 26.17 9.26 40.94 6.68v.6c-6.04 3.43-12.88 5.33-19.68 6.56l-.64.11c-13.87 2.43-26.42-2.74-38.13-9.7a52.4 52.4 0 0 0-14.3-5.92 40.1 40.1 0 0 0-19.81.18c-4.25 1.07-8.6 2.43-12.47 4.53-.8.36-.8.36-1.51.27l-.49-.2c3.37-3.8 7.72-6.7 12.23-8.95l.56-.29c17.24-8.63 37.64-3.38 53.3 6.13Zm144.69-4.95.6.35c3.7 2.13 7.2 4.6 9.83 8-1.3-.2-2.4-.68-3.57-1.23-9.86-4.45-21.02-6.45-31.6-3.54l-.66.17c-7.06 1.95-13.58 5.85-19.9 9.44-12.43 6.97-25.9 7.54-39.4 3.76a69.66 69.66 0 0 1-9.73-3.62l-.66-.31c-.51-.25-1.01-.52-1.5-.8v-.6c.2.04.38.08.58.1 16.9 2.74 29.02-.45 44.02-8.56 6.73-3.64 13.68-6.72 21.28-7.93l.92-.15c10-1.57 20.95-.23 29.79 4.92Zm-75.75 119.74a52 52 0 0 0 9.27 3.99v.6c-4.9 2.44-15.8-2.09-20.42-3.62l-2.72-.93a29.76 29.76 0 0 0-10.33-1.85l-1.07.01c-4.88.1-9.11 1.64-13.7 3.18-5.78 1.96-12.07 3.78-18.24 3.5l-.6-.3v-.6c.56-.27.56-.27 1.36-.56l.9-.33.98-.37a62.28 62.28 0 0 0 8.2-3.86 48.49 48.49 0 0 1 9.43-4.12l.96-.3c12.32-3.43 25.1-.54 35.98 5.56Z"/><path d="M665.43 164.04v-5.56c-11.12.37-17.8.56-27.25.56-9.27 0-15.94-.19-27.06-.56v5.56l8.9.56c8.52.56 9.26 1.67 9.45 16.68v108.64c0 15.57-2.6 20.76-10.01 20.76-4.64 0-8.16-.93-12.42-3.52l-2.04 1.11.93 14.09 3.15.37 1.3.19c6.3.92 17.98-5.94 25.2-15.02 9.1-11.12 11.5-20.4 11.5-42.82v-83.8c.19-15.01.93-16.12 9.46-16.68Zm99.18-7.04h-5.93a797.31 797.31 0 0 1-7.23 17.61c-2.97 6.67-6.67 15.39-9.82 22.43l-33 75.08c-2.23 5.38-5.93 8.71-10.01 9.09l-6.86.55v5.56c12.6-.37 16.68-.55 20.2-.55 3.16 0 8.9.18 22.44.55v-5.56l-6.86-.55c-6.5-.56-8.9-1.86-8.9-4.82 0-2.6 2.6-10.2 6.49-19.65l5.19-12.43h53.39l8.52 21.32c3.34 8.35 3.9 10.01 3.9 11.87 0 2.04-2.78 3.33-7.6 3.7l-8.72.56v5.56c15.2-.37 21.88-.55 25.77-.55 4.08 0 9.09.18 23.54.55v-5.56l-6.3-.55c-4.82-.75-6.86-3.71-13.35-18.91Zm-31.14 79.9L757 181.66l23.36 55.24Zm177.59-72.86v-5.56c-11.12.37-17.8.56-27.25.56-9.27 0-15.94-.19-27.06-.56v5.56l8.9.56c8.52.56 9.26 1.67 9.45 16.68v87.88c0 5.56-1.67 9.45-4.64 10.93l-5.74 2.97v4.26c9.08-.37 13.53-.55 18.35-.55 2.04 0 4.82 0 8.71.18 17.24.19 29.1.37 34.48.37 6.5 0 13.9-.18 31.15-.55 1.11-7.6 1.85-12.8 3.9-31.89h-5.94l-2.23 9.27c-.18.56-.37 1.85-.55 2.04-1.11 5.38-2.41 9.08-3.52 10.01-2.41 2.04-18.36 3.34-41.16 3.34-6.49 0-10.56-.37-15.2-1.49v-96.77c.19-15.01.93-16.12 9.46-16.68Zm149.98-7.04h-5.94a797.31 797.31 0 0 1-7.23 17.61c-2.96 6.67-6.67 15.39-9.82 22.43l-33 75.08c-2.22 5.38-5.93 8.71-10 9.09l-6.87.55v5.56c12.6-.37 16.69-.55 20.2-.55 3.16 0 8.9.18 22.44.55v-5.56l-6.86-.55c-6.49-.56-8.9-1.86-8.9-4.82 0-2.6 2.6-10.2 6.49-19.65l5.2-12.43h53.38l8.53 21.32c3.34 8.35 3.9 10.01 3.9 11.87 0 2.04-2.79 3.33-7.6 3.7l-8.72.56v5.56c15.2-.37 21.87-.55 25.77-.55 4.07 0 9.08.18 23.54.55v-5.56l-6.3-.55c-4.82-.75-6.86-3.71-13.35-18.91Zm-31.15 79.9 23.55-55.24 23.35 55.24Zm159.24-69.15a68.65 68.65 0 0 1 18.17-2.22c19.28 0 30.03 8.9 30.03 24.65 0 17.06-13.34 27.81-35.03 27.81-1.12 0-2.97 0-5.38-.19l-1.11 2.23c2.04 2.41 2.6 2.97 4.82 5.56 2.6 2.97 3.34 3.9 4.82 5.93l34.1 45.8c3.16 4.07 5.76 7.4 7.6 10 7.61-.37 10.39-.55 12.62-.55 2.03 0 4.63.18 13.34.55v-5.56c-5.93-.55-8.9-1.67-11.3-4.82l-42.09-54.87c10.38-2.6 15.2-4.64 21.32-8.9 9.83-6.86 14.83-16.13 14.83-26.88 0-17.98-12.97-27.8-36.33-27.8-1.49 0-1.49 0-8.53.18l-8.34.18c-9.46.19-9.64.19-15.39.19-7.6 0-15.57-.19-32.81-.56v5.56l7.6.56c8.71.74 9.27 1.67 9.45 16.68v83.24c-.18 14.83-.92 16.31-9.45 16.69l-8.9.55v5.56c10.94-.37 17.43-.55 27.07-.55s16.31.18 27.25.55v-5.56l-8.9-.55c-8.53-.38-9.27-1.67-9.46-16.69Zm178.9-10.75h-5.93a797.31 797.31 0 0 1-7.23 17.61c-2.97 6.67-6.68 15.39-9.83 22.43l-33 75.08c-2.22 5.38-5.93 8.71-10 9.09l-6.87.55v5.56c12.6-.37 16.69-.55 20.2-.55 3.16 0 8.9.18 22.44.55v-5.56l-6.86-.55c-6.49-.56-8.9-1.86-8.9-4.82 0-2.6 2.6-10.2 6.5-19.65l5.18-12.43h53.4l8.52 21.32c3.34 8.35 3.9 10.01 3.9 11.87 0 2.04-2.79 3.33-7.6 3.7l-8.72.56v5.56c15.2-.37 21.87-.55 25.77-.55 4.08 0 9.08.18 23.54.55v-5.56l-6.3-.55c-4.82-.75-6.86-3.71-13.35-18.91Zm-31.15 79.9 23.55-55.24 23.35 55.24Zm122.35 44.86v5.56c13.35-.37 17.8-.55 21.5-.55 3.53 0 9.1.18 22.25.55v-5.56l-8.15-.55c-8.71-.75-9.27-1.67-9.46-16.69V178.5l87.69 109 16.68 2.97c0-.74 0-.92-.18-2.22-.19-1.85-.37-3.7-.37-4.63V181.28c.18-15.01.74-15.94 9.45-16.68l8.16-.56v-5.56c-12.05.37-17.98.56-22.06.56-4.08 0-9.09-.19-21.7-.56v5.56l8.17.56c8.7.74 9.26 1.67 9.45 16.68v87.32l-89.17-110.12-10 .56c-10.58-.19-11.87-.19-22.26-.56v5.56l8.16.56c8.71.74 9.27 1.67 9.46 16.68v83.24c-.19 15.02-.75 15.94-9.46 16.69Zm311.07-117.72v-5.56c-12.05.37-17.98.56-22.06.56-3.89 0-8.9-.19-21.69-.56v5.56l8.16.56c8.71.74 9.27 1.67 9.46 16.68v59.33c0 26.14-12.61 38.37-39.5 38.37-25.76 0-36.88-10.2-36.88-33.92v-63.78c.18-14.83.93-16.3 9.45-16.68l8.9-.56v-5.56c-11.12.37-17.8.56-27.25.56-9.27 0-15.94-.19-27.07-.56v5.56l8.9.56c8.53.56 9.27 1.67 9.46 16.68v65.82c0 14.45 3.33 24.65 10.38 31.88 7.41 7.6 20.58 11.5 39.11 11.5 19.1 0 31.89-3.9 40.23-12.24 8.71-8.9 12.8-22.8 12.8-43.38v-53.58c.18-15.01.73-15.94 9.45-16.68Z" fill="#F1F5FA"/></svg>